#!OML:ASF E:/inclinewalkrobotboard/Project1/Captureday1/Session1/subject1.ASF
:FULLY-SPECIFIED
:DEGREES
301
root 0 0 0 -1.5696929300756406 0.25111215134071196 3.1785757287922336
lowerback 10.288371143895256 -1.4476848524281212 -4.719619173004401
upperback 0.5375835150290922 -2.3869745129268534 1.3272775419576055
thorax -5.034083745875986 -1.0567168911626679 4.3777498556471555
lowerneck -17.44394617722265 -2.476359502256188 -2.173783815303965
upperneck 19.468934092274726 -2.8207292434093745 -0.08000206020927436
head 9.052347081387769 -1.4758499380947652 -0.0314567345643082
rclavicle 4.0119769729282784E-15 -1.1372701969525639E-15
rhumerus -31.95041483497128 -23.73800236374366 -76.01044682078233
rradius 25.789880544204316
rwrist 3.0893666142296707
rhand -18.83682837621048 22.80288540470101
rfingers 7.1250200000000214
rthumb 7.4654007140113645 -7.12163373336762
lclavicle 3.1793859229007557E-15 -7.737484553912651E-16
lhumerus -24.276514703245283 -5.661407123347682 81.98736867511147
lradius 32.04162562427606
lwrist 7.447240027483522
lhand -28.121765654279955 25.069616604594486
lfingers 7.125020000000001
lthumb -1.4978744425635728 55.06180424930073
rfemur -36.56050706743983 5.688799773719135 19.053014845304336
rtibia 27.864668953942566
rfoot -8.687593983966241 -16.005789640364988
rtoes -4.283354111487502
lfemur 10.05429961574989 -3.044387650370525 -29.714517238165115
ltibia 19.615324933274422
lfoot -18.03669180622562 -0.14795717906078742
ltoes 2.3584159408264718
302
root 0 0 0 -1.4474636535548777 0.43095679321918157 3.0133389460928446
lowerback 10.182972901903305 -1.498079408703107 -4.6886750766429115
upperback 0.44353996500158943 -2.443468442220639 1.3961965680066264
thorax -5.074410437195734 -1.0852493140727038 4.437807349297085
lowerneck -17.33746074427001 -2.467055394685567 -2.043525992800258
upperneck 20.175874390212215 -2.8063289755450427 -0.3072016601106522
head 9.282657391816869 -1.4792722056276586 -0.13000129998657195
rclavicle 3.614817367082195E-15 -9.598370865172871E-16
rhumerus -32.37272750457552 -24.367827603335602 -75.8182489327646
rradius 25.372746905845602
rwrist 3.3291163713522005
rhand -18.850805556703243 22.560139227535586
rfingers 7.12502000000002
rthumb 7.452059738907575 -7.371689401200598
lclavicle 2.80227560924679E-15 -5.603403007420839E-16
lhumerus -24.167539144346534 -5.433155478484731 81.76517477956682
lradius 31.922849493777754
lwrist 7.433151354156887
lhand -28.113235809159946 25.301523432338346
lfingers 7.125020000000002
lthumb -1.4902191541628493 55.29358962061734
rfemur -31.0027150806919 7.842639811326935 19.53457214488802
rtibia 15.567815059405428
rfoot -8.31758899062902 -14.555538319281297
rtoes -4.707676231026061
lfemur 12.189594441303239 -3.346821154754031 -29.659229808779216
ltibia 19.87288554002209
lfoot -16.761845300915517 -1.6377821017893166
ltoes 1.199206155606369
303
root 0 0 0 -1.4411323468650064 0.47181533238528983 2.5544670773334066
lowerback 10.220251778905267 -1.531943597950972 -4.348316614745807
upperback 0.41163814131646326 -2.441070184319309 1.5325612174095644
thorax -5.126568195248428 -1.090283261625641 4.389087401840594
lowerneck -17.364494756553366 -2.440553746705127 -1.9598800169787234
upperneck 20.218344652701756 -2.761794287593821 -0.449950128150294
head 9.302379459862827 -1.4688006391727484 -0.1874018982638525
rclavicle 2.6326002078069893E-15 -1.1228761709769606E-15
rhumerus -32.70037003984143 -24.964039311366992 -75.6000486608705
rradius 24.97691197674765
rwrist 3.6552864743556635
rhand -18.849614035664814 22.366936119494966
rfingers 7.125020000000018
rthumb 7.452849087000393 -7.572748923974437
lclavicle 1.7299831518140318E-15 -6.627990511237782E-16
lhumerus -24.558195308670882 -4.946751213186681 81.62154736339356
lradius 31.574838221792614
lwrist 7.296633519584368
lhand -28.03347546124197 25.709624154970935
lfingers 7.125020000000004
lthumb -1.4121656811257637 55.698124991146166
rfemur -28.11644247620006 7.667868688818901 19.290304171987565
rtibia 15.453959615157672
rfoot -6.979095255369572 -12.496205501609417
rtoes -4.209552213025816
lfemur 14.961751508164173 -3.5054695749184672 -29.274841193276504
ltibia 21.06979820495701
lfoot -13.415906766544294 -4.625780720118028
ltoes -1.8747348911311121
304
root 0 0 0 -1.4706372962464844 0.5416210585715158 1.3161900083864295
lowerback 10.37251017592972 -1.6265265199040648 -3.442180553474995
upperback 0.39334803219397607 -2.4364196588409293 1.8925883823159122
thorax -5.227176022492292 -1.1065424239029418 4.256850949418114
lowerneck -17.430387781155574 -2.3869298710881894 -1.8244102707273595
upperneck 19.82186921725558 -2.6904573431284335 -0.5723151127623349
head 9.184946576136515 -1.4392722454883782 -0.24005733082202813
rclavicle 2.2290547000775917E-15 -1.6124773787488723E-15
rhumerus -32.944618034578546 -25.465612186314516 -75.43584801335861
rradius 24.499167598266943
rwrist 4.08094186823734
rhand -18.796791311360174 22.275647996083137
rfingers 7.125020000000017
rthumb 7.503958026209947 -7.66679616807053
lclavicle 1.2239255038798007E-15 -1.0474383792553049E-15
lhumerus -25.35394363731379 -4.375117697280293 81.65837135733206
lradius 31.170774517546022
lwrist 7.145598754349619
lhand -27.93115301834115 25.87263928499363
lfingers 7.125020000000006
lthumb -1.3125075175317562 55.85801341998574
rfemur -24.71823220476087 5.858348995931458 20.301183267783912
rtibia 24.64955913644781
rfoot -5.869873710149904 -8.712664759593443
rtoes 0.33762129529528684
lfemur 16.786412610089002 -3.6964412491515843 -27.84757914478855
ltibia 25.41635440392619
lfoot -6.7676758766733185 -8.72681217580419
ltoes -7.396076473978294
305
root 0 0 0 -1.6319272350563672 0.6833309259924207 -1.5977364980754947
lowerback 10.700015501469629 -1.850427632584796 -1.2414037551656378
upperback 0.4388235649673704 -2.4175322374337105 2.7446208237533694
thorax -5.362001392967133 -1.1424976178210269 3.911122883503349
lowerneck -17.46163438886102 -2.318349158734204 -1.5813059675366155
upperneck 19.237504257336955 -2.6029571017392845 -0.7651065152337224
head 8.991246083680746 -1.4022823129119195 -0.3318161953679198
rclavicle 2.1366733531176882E-15 -2.2192385683978353E-15
rhumerus -33.00322534394483 -25.701824724271432 -75.34306089417696
rradius 24.164028726562783
rwrist 4.409686189671171
rhand -18.719060712665062 22.276929875297263
rfingers 7.125020000000017
rthumb 7.579321769778861 -7.659939214655413
lclavicle 9.770263686550003E-16 -1.5816271482734591E-15
lhumerus -27.261169736559708 -3.522988962885081 82.13176538613352
lradius 30.570710102563744
lwrist 7.002832833707206
lhand -27.751826157115403 25.454413795853405
lfingers 7.125020000000012
lthumb -1.1401084143485054 55.43325686386767
rfemur -21.16405220208955 4.572971989928629 22.402188845724154
rtibia 33.069431290413334
rfoot -5.933717849945634 -5.357329159857675
rtoes 6.425631379248783
lfemur 13.630285779293324 -3.1663343244481297 -22.419041819063647
ltibia 44.928835828641425
lfoot 7.387667138135804 -16.0463232655117
ltoes -14.617661847575762
